<svg width="180" height="180" viewBox="0 0 180 180" fill="none" xmlns="http://www.w3.org/2000/svg">
<circle cx="90" cy="90" r="90" fill="#1B1A1A"/>
<path d="M127.83 19.5498C128.262 20.0954 128.433 20.4112 128.342 20.4543C128.125 20.5404 128.535 21.2725 129.729 22.9378C131.822 25.8665 132.925 27.661 134.733 31.049C135.381 32.2692 136.28 33.8197 136.723 34.4944C137.94 36.3463 140.567 39.3754 141.989 40.5813C142.591 41.0981 143.001 41.2561 142.83 40.9115C142.728 40.7105 143.137 41.0264 144.195 41.9882C144.616 42.3615 144.957 42.6629 144.957 42.6199C144.957 42.5912 144.809 42.1461 144.616 41.6293C144.07 40.1076 143.399 37.7819 142.785 35.2265C142.466 33.9202 142.046 32.3554 141.864 31.7668C140.487 27.5174 138.27 25.0912 132.618 21.6314C130.627 20.4255 127.489 18.7028 127.261 18.7028C127.204 18.7028 127.466 19.0761 127.83 19.5498Z" fill="white"/>
<path d="M53.5213 20.0953C51.9291 20.928 51.1217 21.2869 51.1899 21.129C51.4401 20.6265 45.8448 24.1294 44.1162 25.565C41.8189 27.4887 40.2722 29.5846 39.442 31.9247C38.7028 34.0206 36.8832 41.1699 36.9742 41.6293C37.0083 41.8159 37.0879 41.9308 37.1448 41.8877C37.3154 41.7585 37.2812 42.0169 37.031 42.7634C36.9059 43.1367 36.815 43.4669 36.8377 43.4956C36.9059 43.5817 39.4875 41.1125 40.9546 39.562C42.3193 38.1264 43.9001 36.1453 44.6734 34.9251C44.8895 34.5662 45.6742 33.1449 46.4134 31.7667C48.5401 27.7901 49.666 26.0387 52.6911 22.0334C53.7146 20.6839 54.5448 19.5642 54.5221 19.5785C54.4993 19.5785 54.0558 19.8226 53.5213 20.0953Z" fill="white"/>
<path d="M141.886 27.8332C141.886 27.8763 142.08 28.2783 142.318 28.7233C142.967 29.9292 143.001 30.0153 142.739 29.7569C142.296 29.3119 142.671 30.4604 143.581 32.3984C145.093 35.6142 145.776 37.5235 146.253 39.8779C146.56 41.414 147.266 47.4865 147.209 48.0895C147.175 48.4053 147.061 48.2618 146.219 46.9267C144.923 44.845 143.262 42.8926 141.693 41.5862C140.988 40.9976 139.828 40.0358 139.111 39.4472C137.599 38.1982 136.155 36.5329 135.222 34.9538C134.858 34.3508 134.517 33.7909 134.471 33.7192C134.392 33.59 134.426 34.3365 134.551 35.6285C134.596 36.0592 134.585 36.0879 134.449 35.8582C134.028 35.1404 134.028 36.9349 134.437 38.7438C135.552 43.553 137.167 45.893 141.886 49.4964C144.161 51.2334 145.196 52.1666 146.299 53.516C147.493 54.9516 148.153 55.9996 149.04 57.8516C149.802 59.4451 150.188 59.9475 150.313 59.5168C150.37 59.3015 150.768 60.3208 151.2 61.8138C151.428 62.589 151.712 56.1288 151.724 50.1424C151.724 44.5866 151.633 43.151 151.087 40.4521C150.234 36.2458 148.426 33.1449 145.162 30.3168C144.081 29.3837 141.886 27.7184 141.886 27.8332Z" fill="white"/>
<path d="M38.5208 29.6851C37.8044 30.2019 37.2016 30.6183 37.1675 30.6183C37.1448 30.6183 37.1675 30.5465 37.2016 30.4603C37.3722 30.1158 35.871 31.2356 34.9271 32.1687C32.2318 34.7958 30.6738 37.6958 29.9345 41.4714C29.5592 43.352 29.4455 44.4431 29.2863 47.2712C29.093 50.9176 29.3432 59.0861 29.6957 60.1198C29.8663 60.6509 30.0824 60.7802 30.1051 60.3638C30.1393 59.8183 30.2985 61.0386 30.3098 61.9286C30.3098 62.4454 30.3553 62.9192 30.4008 62.9623C30.4349 63.0197 30.5828 62.6464 30.7306 62.144C31.0604 60.9381 31.9247 58.7703 32.5047 57.6793C33.915 55.0521 35.6777 53.071 38.5891 50.8602C42.2852 48.0751 43.8091 46.496 45.0032 44.199C46.0609 42.1748 46.8228 39.4041 47.1526 36.3606C47.2209 35.6859 47.3005 35.0255 47.3232 34.882C47.3801 34.4657 47.2209 34.6092 46.9024 35.2552C46.6295 35.7864 45.6287 37.1359 45.8334 36.6765C46.0836 36.1453 45.3217 36.82 44.0934 38.2556C43.5817 38.8729 42.6264 39.7917 41.9895 40.3229C41.364 40.8397 40.2267 41.7585 39.4761 42.3758C38.7028 42.9931 37.6793 44.0124 37.1106 44.6871C36.1781 45.7925 34.0969 48.7642 33.7557 49.4676C33.6079 49.7548 33.6079 49.7404 33.6648 49.281C33.7102 49.0083 33.915 47.2138 34.131 45.3188C34.3585 43.4094 34.6428 41.3422 34.7679 40.7249C35.382 37.7532 36.6785 34.5662 38.8961 30.5752C39.8514 28.8525 39.9083 28.752 39.8514 28.752C39.8287 28.752 39.2373 29.1683 38.5208 29.6851Z" fill="white"/>
<path d="M152.906 40.8398C153.236 41.7585 153.486 42.9357 153.27 42.5481C153.031 42.1031 153.009 43.1654 153.202 44.9599C153.509 47.6588 153.464 50.1281 152.986 55.4541C152.759 57.9377 152.497 61.4549 152.406 63.2638C152.304 65.087 152.213 66.58 152.201 66.6087C152.179 66.6231 151.997 66.1493 151.792 65.532C151.291 63.9959 150.416 62.3019 149.574 61.2683C149.188 60.7946 148.005 59.6604 146.947 58.756C144.024 56.2437 142.694 54.4205 141.261 50.932L140.738 49.64L140.806 50.6449C140.84 51.1904 140.897 51.9369 140.931 52.2958C140.954 52.6547 140.954 52.8557 140.908 52.7552C140.795 52.4394 140.647 52.5686 140.578 53.0423C140.408 54.1621 141.136 57.5214 142.114 60.1342C143.024 62.5747 144.024 64.3548 147.163 69.0349C149.369 72.3511 150.677 75.1362 151.724 78.7826C152.315 80.8498 152.372 81.0221 152.656 81.3667C152.838 81.5964 152.849 81.5964 152.918 81.3523C152.963 81.18 153.088 81.582 153.27 82.5008L153.543 83.8933L155.386 74.5906C157.296 64.9865 157.683 62.7757 157.967 60.0193C158.377 56.1145 158.308 53.3725 157.751 50.5587C157.057 47.0559 155.59 43.8545 153.236 40.6962C152.929 40.2942 152.656 39.9497 152.633 39.9497C152.611 39.9497 152.736 40.3517 152.906 40.8398Z" fill="white"/>
<path d="M28.4334 41.7011C28.1263 42.1174 27.66 42.7778 27.3871 43.1654C27.1141 43.5674 26.9322 43.7683 26.9777 43.6391C27.1028 43.2228 26.8185 43.3664 26.3294 43.9837C25.7381 44.7302 24.851 46.4529 24.2937 47.9172C22.5651 52.5111 22.3831 57.3347 23.6228 65.1444C23.9526 67.1829 26.011 77.6772 26.6479 80.534C26.9549 81.9265 27.3416 82.7161 27.4781 82.228C27.5236 82.0557 27.6259 82.3141 27.7965 83.0319C27.933 83.6205 28.0467 84.2091 28.0467 84.3383C28.0467 84.4675 28.1036 84.6254 28.1604 84.6685C28.2287 84.7116 28.2742 84.6398 28.2742 84.4962C28.2742 84.0799 28.9224 80.9934 29.3091 79.6152C30.3212 75.9401 31.6632 73.2124 34.6314 68.8339C37.3267 64.8286 38.4981 62.589 39.4079 59.6891C40.1358 57.3635 40.7271 54.1621 40.9546 51.3627L41.0228 50.5013L40.5793 51.578C40.1016 52.7408 39.5671 53.875 39.4762 53.875C39.4534 53.875 39.4534 53.7745 39.4989 53.6453C39.6581 53.1284 39.0667 53.7601 38.2593 54.9947C37.8044 55.6838 37.1334 56.6169 36.7467 57.0907C36.1326 57.8516 35.6322 58.3253 33.1302 60.5361C31.8679 61.6559 30.9467 62.7182 30.5032 63.5509C29.9459 64.6276 28.8655 67.1686 28.82 67.5562C28.7973 67.7285 28.7404 67.0968 28.6949 66.1493C28.5016 61.9287 28.3424 59.7465 28.0353 56.459C27.6032 51.9656 27.5008 48.3335 27.751 46.3811C27.9443 44.8881 28.4902 42.5481 28.8655 41.6293C28.9906 41.3135 29.0702 41.0407 29.0361 41.012C29.0134 40.9833 28.7404 41.2848 28.4334 41.7011Z" fill="white"/>
<path d="M160.196 63.9816C160.196 64.5414 159.821 66.2498 159.741 66.0775C159.593 65.7761 159.218 66.3934 159.025 67.2404C158.934 67.671 158.627 69.2502 158.331 70.7432C157.421 75.4663 156.716 78.0504 155.26 82.0127C153.998 85.4007 152.69 89.5495 152.69 90.1238C152.69 90.7267 152.577 90.1525 152.406 88.7456C151.837 83.9507 150.336 79.5291 146.174 70.4561C145.491 68.9487 144.877 67.6567 144.82 67.5849C144.752 67.4988 144.729 67.872 144.741 68.5898C144.764 69.4081 144.729 69.7383 144.627 69.7383C144.229 69.7383 144.172 71.1739 144.445 74.1886C144.957 79.7301 145.605 83.4195 147.118 89.2624C148.573 94.8756 148.744 96.1389 148.733 101.235C148.721 104.896 148.778 105.513 149.119 105.355C149.256 105.298 149.267 105.427 149.21 106.102L149.153 106.92L150.086 105.7C156.58 97.1869 160.242 89.8079 161.493 82.7017C161.936 80.1607 162.05 78.3949 161.982 75.3371C161.913 72.5664 161.766 71.1308 161.277 68.3027C160.776 65.4602 160.196 63.1346 160.196 63.9816Z" fill="white"/>
<path d="M21.0639 66.1063C20.8365 67.025 20.7227 67.3552 20.6659 67.183C20.5976 66.9245 20.5863 66.9245 20.4043 67.183C20.1086 67.5849 19.9039 68.3027 19.6537 69.8101C18.0616 79.1845 19.358 87.3818 23.7592 95.6508C26.1702 100.173 30.4463 106.418 31.1514 106.418C31.2083 106.418 31.2083 106.332 31.1628 106.231C31.1173 106.145 31.4016 106.447 31.7769 106.906C32.1636 107.38 32.4934 107.739 32.5161 107.695C32.5389 107.667 32.4934 106.791 32.4138 105.772C32.2318 103.46 32.2204 99.6849 32.3683 97.8329C32.5389 95.8662 32.9255 93.9281 33.9149 90.1238C35.1887 85.2141 35.7687 82.228 36.2804 77.9212C36.5875 75.3228 37.0993 68.5468 36.9969 68.4176C36.9742 68.3889 36.6785 68.9631 36.3487 69.6665C36.0075 70.3843 35.7118 70.9012 35.6663 70.815C35.4161 70.2982 34.5632 71.8199 32.8118 75.9114C30.3667 81.6251 29.4114 84.6542 28.7177 88.9035C28.5243 90.052 28.3538 90.9995 28.3424 91.0139C28.331 91.0282 28.1718 90.4827 28.0012 89.7936C27.5122 87.8843 26.9208 86.0611 25.8518 83.2186C24.6349 79.9741 23.8957 77.4475 23.2133 74.3609C22.6561 71.7769 21.8941 67.5993 21.6667 65.8479C21.5871 65.2593 21.4961 64.7855 21.4506 64.7855C21.4165 64.7855 21.2459 65.3885 21.0639 66.1063Z" fill="white"/>
<path d="M144.809 89.7362C144.582 90.2674 144.388 90.6119 144.388 90.5114C144.388 90.1669 143.945 90.6119 143.695 91.2149C143.388 91.9757 142.853 94.6316 142.637 96.4404C142.387 98.522 142.262 100.13 142 104.48C141.454 113.711 140.942 117.515 139.384 124.162C139.02 125.712 138.975 126.674 139.293 126.43C139.418 126.33 139.407 126.387 139.191 127.363C139.123 127.722 139.123 127.722 139.794 127.248C141.261 126.2 145.344 122.913 147.175 121.291C153.452 115.735 157.035 111.026 159.184 105.485C160.708 101.537 161.447 97.3449 161.447 92.6361V90.5545L160.913 91.8178C160.617 92.5069 160.344 92.995 160.31 92.9232C160.139 92.5787 159.593 93.4687 158.547 95.7657C156.148 100.977 154.897 102.886 151.439 106.561C150.348 107.724 149.267 108.93 149.04 109.232C148.437 110.064 146.833 112.476 146.674 112.806L146.538 113.093L146.595 112.806C147.084 110.466 147.243 105.198 146.959 101.68C146.663 98.1919 145.537 89.4778 145.309 88.9466C145.264 88.8318 145.071 89.1332 144.809 89.7362Z" fill="white"/>
<path d="M36.3487 89.8941C36.3487 90.454 36.0757 91.6312 35.9961 91.4589C35.8028 91.0713 35.4502 91.7891 35.2228 93.0524C34.6769 96.0097 34.0173 102.24 33.9036 105.556C33.824 107.48 33.8581 108.37 34.1879 112.591C34.2334 113.179 34.2561 113.682 34.2561 113.696C34.2448 113.711 33.9377 113.194 33.5624 112.562C32.5047 110.753 31.5495 109.547 29.6389 107.566C25.92 103.719 23.9867 100.546 21.2914 93.9281C20.4043 91.746 20.3361 91.6312 20.2678 92.0618C20.2337 92.3202 20.1996 92.8945 20.1882 93.3395C20.1882 93.8276 20.1541 94.043 20.0973 93.885C20.029 93.6266 20.0063 93.6266 19.8584 93.8563C19.4831 94.4306 19.6082 97.2443 20.1541 100.374C21.6553 108.916 26.0337 115.62 35.1204 123.329C38.1342 125.87 40.1585 127.392 40.5907 127.435C40.7954 127.464 41.3299 127.736 41.762 128.067C42.1942 128.382 42.5581 128.626 42.5695 128.626C42.5809 128.612 42.2852 127.449 41.9099 126.057C40.3063 120.042 39.5899 115.031 39.0781 106.418C38.5322 97.2013 38.0887 93.9712 36.9173 90.7985C36.4738 89.5926 36.3487 89.406 36.3487 89.8941Z" fill="white"/>
<path d="M139.691 107.997C139.066 109.016 138.77 109.404 138.645 109.332C138.281 109.16 136.882 111.5 135.188 115.132C133.698 118.333 133.004 120.415 131.981 124.793C131.185 128.181 130.673 129.99 130.036 131.613C129.354 133.321 128.228 135.647 127.182 137.455C125.612 140.212 125.487 140.47 125.544 140.858C125.578 141.087 125.521 141.375 125.373 141.619C125.26 141.848 125.203 142.021 125.271 142.021C125.442 142.021 130.184 140.571 132.504 139.81C140.681 137.111 145.707 134.742 148.869 132.086C149.961 131.167 151.405 129.488 152.133 128.268C152.895 126.99 153.748 124.822 154.282 122.827C154.749 121.032 156.261 113.897 156.193 113.797C156.159 113.768 155.852 114.314 155.499 115.003C154.806 116.338 154.237 117.271 154.351 116.855C154.555 116.122 153.714 117.142 152.326 119.338C149.62 123.602 147.766 125.267 143.024 127.665C140.829 128.784 139.896 129.33 138.531 130.335C137.906 130.78 137.121 131.34 136.78 131.569C136.439 131.785 136.086 132.058 136.007 132.144C135.916 132.244 136.109 131.641 136.45 130.809C137.587 128.024 137.917 126.301 138.531 119.841C139.066 114.184 139.578 110.825 140.453 107.236C140.544 106.863 140.613 106.561 140.59 106.561C140.578 106.561 140.169 107.207 139.691 107.997Z" fill="white"/>
<path d="M41.1252 107.523C41.1252 107.581 41.2616 108.184 41.4095 108.844C41.7052 110.122 41.7734 110.682 41.5915 110.308C41.5118 110.15 41.4664 110.165 41.364 110.409C41.273 110.624 41.2844 110.997 41.3981 111.83C41.9895 115.979 42.1828 117.515 42.4899 120.774C43.0585 126.703 43.2632 127.966 44.0934 130.521C44.3436 131.282 44.5938 132.144 44.6393 132.445L44.7417 132.991L44.446 132.732C42.615 131.211 40.5907 129.904 37.884 128.526C34.0742 126.602 32.5957 125.483 30.6624 123.071C29.3318 121.42 28.0353 119.367 26.6024 116.639C25.9996 115.519 25.4992 114.601 25.4879 114.601C25.4651 114.601 25.5675 115.204 25.7153 115.921C25.8632 116.654 26.011 117.443 26.0451 117.687L26.1134 118.118L25.9541 117.759L25.7949 117.4L25.7153 117.802C25.5902 118.419 25.7381 119.439 26.2839 121.865C27.2961 126.315 28.1604 128.368 29.98 130.679C31.7542 132.933 33.8922 134.584 37.3154 136.321C38.9644 137.168 42.706 138.747 42.8311 138.647C42.8879 138.604 42.9448 138.633 42.9675 138.704C42.9789 138.776 43.1609 138.862 43.3428 138.891C43.5362 138.92 43.7068 138.977 43.7409 139.035C43.775 139.078 43.957 139.149 44.1389 139.178C44.3322 139.207 44.5028 139.264 44.537 139.322C44.5711 139.365 44.753 139.437 44.935 139.465C45.1283 139.494 45.2989 139.551 45.3444 139.609C45.3785 139.666 45.5491 139.738 45.7425 139.767C45.9244 139.795 46.1405 139.853 46.2087 139.91C46.277 139.968 46.4817 140.039 46.6636 140.068C46.8342 140.083 48.5401 140.599 50.4507 141.202C53.5895 142.179 56.5009 143.026 56.5578 142.968C56.5692 142.954 56.1939 142.336 55.7276 141.59C55.2499 140.843 54.4425 139.48 53.9307 138.575C51.3605 134.053 50.3256 131.412 49.1997 126.444C48.1421 121.707 47.2436 119.022 45.5946 115.548C44.4119 113.079 41.1252 107.15 41.1252 107.523Z" fill="white"/>
<path d="M130.616 125.282C130.309 125.64 128.194 127.435 128.285 127.263C128.785 126.243 124.714 129.933 121.586 133.321C121.154 133.795 119.721 135.517 118.402 137.14C115.297 140.987 114.808 141.375 109.691 143.901C108.565 144.461 107.678 144.964 107.7 145.021C107.734 145.078 107.507 145.251 107.189 145.394C106.881 145.552 106.631 145.724 106.631 145.768C106.631 145.825 106.768 145.94 106.95 146.012C107.12 146.098 107.189 146.169 107.109 146.169C107.029 146.184 106.995 146.241 107.029 146.327C107.063 146.399 107.029 146.471 106.95 146.471C106.87 146.485 106.95 146.586 107.143 146.715C107.325 146.844 107.894 147.002 108.394 147.06C108.894 147.131 109.804 147.347 110.418 147.533C111.032 147.734 111.624 147.849 111.726 147.806C111.851 147.734 111.874 147.763 111.806 147.907C111.738 148.05 111.783 148.064 112.022 147.993C112.181 147.95 112.318 147.95 112.318 148.021C112.318 148.079 112.511 148.151 112.738 148.151C112.977 148.165 113.182 148.237 113.205 148.323C113.227 148.409 113.284 148.452 113.341 148.409C113.398 148.366 114.069 148.524 114.842 148.754C120.995 150.62 126.192 151.295 129.888 150.706C132.083 150.361 133.493 149.845 135.347 148.696C137.644 147.261 139.373 145.38 143.933 139.307C145.093 137.771 145.98 136.551 145.924 136.58C145.855 136.608 145.071 137.254 144.161 138.015C142.239 139.623 141.306 140.312 141.534 139.953C141.625 139.824 140.749 140.298 139.6 141.016C138.452 141.719 137.087 142.494 136.575 142.724C136.064 142.939 135.677 143.183 135.722 143.241C135.768 143.313 135.745 143.313 135.677 143.27C135.597 143.212 135.37 143.255 135.165 143.37C134.119 143.916 132.731 144.059 127.216 144.188C124.247 144.26 121.62 144.361 121.393 144.404C121.154 144.447 120.711 144.418 120.392 144.318L119.812 144.145L120.585 143.557C122.166 142.365 123.178 141.26 124.179 139.623C124.975 138.317 125.351 137.498 127.318 132.919C128.33 130.565 129.547 127.866 130.013 126.904C130.832 125.253 130.969 124.865 130.616 125.282Z" fill="white"/>
<path d="M50.9056 126.143C50.9056 126.186 51.1217 126.66 51.3719 127.191C51.6334 127.736 51.8723 128.225 51.9064 128.311C51.9405 128.382 51.8836 128.368 51.7813 128.253C51.3719 127.837 51.588 128.813 52.2589 130.435C54.0331 134.728 55.4433 137.929 56.1938 139.365C56.9899 140.886 57.5017 141.561 59.6739 144.074C60.2197 144.691 60.3676 144.935 60.2425 145.021C60.1174 145.122 60.1174 145.165 60.2425 145.236C60.3335 145.279 59.9923 145.279 59.4919 145.236C58.9915 145.193 56.2848 145.093 53.4644 145.035C48.0056 144.906 47.4483 144.849 45.4468 144.088C43.013 143.155 40.0334 141.188 36.8832 138.403C36.2691 137.872 35.7346 137.427 35.6891 137.427C35.655 137.427 36.0985 138.058 36.6899 138.819C37.9067 140.398 38.6914 141.504 38.3161 141.102C38.0318 140.8 37.9863 140.915 38.2024 141.403C38.4754 142.035 40.0448 144.217 41.1138 145.452C42.5695 147.146 44.082 148.567 45.3103 149.385C46.4475 150.146 47.8009 150.821 47.9487 150.706C47.9942 150.663 48.0624 150.692 48.0852 150.763C48.0966 150.85 48.3013 150.936 48.5174 150.964C48.7334 151.007 49.4272 151.165 50.0527 151.338C54.886 152.601 61.539 151.61 71.5468 148.122C73.4802 147.433 74.9814 146.859 75.0723 146.729C75.1065 146.701 74.6857 146.457 74.1284 146.184C69.6476 144.059 66.7249 142.451 65.4056 141.375C65.0986 141.131 63.768 139.566 62.4488 137.9C59.4464 134.125 56.8535 131.397 52.6115 127.593C51.8268 126.904 51.1217 126.258 51.0534 126.186C50.9738 126.114 50.9056 126.085 50.9056 126.143Z" fill="white"/>
<path d="M97.7038 144.346C96.5438 144.432 94.4399 144.892 93.803 145.193C93.6552 145.265 93.496 145.294 93.4391 145.251C93.3254 145.165 91.6877 145.839 90.505 146.442L89.6748 146.873L88.1167 146.313C84.614 145.035 81.9641 144.877 79.0528 145.768C78.5524 145.925 77.961 146.083 77.7449 146.112C77.5288 146.155 76.9147 146.385 76.3802 146.629C75.4476 147.06 75.1178 147.174 73.3778 147.677C72.8774 147.82 72.5363 148.007 72.4339 148.194C72.1155 148.768 69.5566 150.304 67.2594 151.295C66.6111 151.567 66.0084 151.84 65.9174 151.883C65.8264 151.926 65.6786 151.955 65.5876 151.941C65.4966 151.926 65.4739 151.969 65.5307 152.084C65.5876 152.213 65.5535 152.228 65.4056 152.17C65.3033 152.113 65.1441 152.127 65.0758 152.199C65.0076 152.271 64.5186 152.457 63.9841 152.615C59.9696 153.821 54.4652 153.965 48.7221 153.032C48.1079 152.931 47.6075 152.902 47.6075 152.96C47.6075 153.017 47.6417 153.075 47.6985 153.075C47.744 153.075 48.0056 153.347 48.2899 153.663C48.5742 153.979 48.7221 154.194 48.6311 154.151C48.5401 154.094 48.6652 154.309 48.9154 154.625C50.3028 156.405 56.808 160.683 58.4684 160.899C58.6617 160.927 59.2417 161.085 59.7762 161.243C61.4366 161.731 62.5625 161.875 64.1433 161.789C67.4982 161.602 70.1821 160.167 74.4241 156.29C79.0982 152.012 81.3159 150.433 83.272 149.974C83.6018 149.902 83.6587 149.931 83.6587 150.16C83.6587 150.605 83.0787 151.18 79.9626 153.821C75.8571 157.295 71.3649 161.473 70.9782 162.162C70.8872 162.334 70.8076 162.679 70.8076 162.923C70.8076 163.712 71.8994 165.277 72.4567 165.277C72.6159 165.277 72.8092 165.435 72.9457 165.665L73.1731 166.053L75.0951 163.684C77.4379 160.813 79.2347 158.788 81.3386 156.664C83.8975 154.08 87.15 151.452 88.8787 150.548L89.5383 150.218L90.3799 150.577C91.7332 151.151 94.2807 152.816 95.9865 154.223C99.0458 156.764 101.389 159.176 105.21 163.77C107.052 165.981 107.45 166.368 107.666 166.196C107.734 166.153 107.951 166.311 108.155 166.555L108.519 167L109.634 165.335C110.248 164.416 110.703 163.626 110.657 163.555C110.6 163.497 109.838 162.751 108.963 161.904C103.902 156.994 98.6819 152.572 94.9971 150.074C94.4285 149.672 93.8712 149.27 93.7803 149.17C93.6893 149.069 93.6324 148.998 93.6552 149.012C93.6779 149.041 93.7689 148.94 93.8371 148.811C93.9622 148.61 94.1897 148.567 95.3269 148.567C96.6348 148.581 97.9654 148.797 98.0905 149.026C98.1246 149.084 98.3862 149.227 98.6705 149.328C100.138 149.859 102.173 151.352 105.221 154.094C107.803 156.448 109.338 157.726 110.498 158.501C111.601 159.248 113.341 160.138 113.534 160.052C113.614 160.009 113.682 160.037 113.682 160.123C113.682 160.21 113.728 160.238 113.773 160.195C113.83 160.152 114.149 160.21 114.49 160.324C116.275 160.913 118.663 161.014 120.574 160.612C123.394 159.994 126.693 158.243 130.173 155.487C131.276 154.611 134.164 152.041 134.119 151.984C134.107 151.955 133.732 151.998 133.3 152.07C128.455 152.831 123.383 152.874 119.858 152.213C116.059 151.481 113.148 150.304 108.337 147.548C103.731 144.906 101.013 144.088 97.7038 144.346Z" fill="white"/>
<path d="M119.668 55.2294C118.852 54.8415 117.888 54.9514 117.183 55.5167C110.232 61.1037 98.9224 61.1037 91.9709 55.5167C91.1118 54.8278 89.8882 54.8278 89.029 55.5167C82.0775 61.1037 70.7683 61.1037 63.8168 55.5167C63.1122 54.9514 62.1466 54.8415 61.332 55.2294C60.5176 55.6186 60 56.4414 60 57.3432V99.531C60 113.122 71.1568 124.477 89.8448 129.907C90.0591 129.969 90.279 130 90.5 130C90.7211 130 90.9409 129.969 91.1552 129.907C109.843 124.477 121 113.122 121 99.531V57.3432C121 56.4414 120.482 55.6186 119.668 55.2294ZM64.6923 61.6222C69.6779 64.1259 75.5364 64.8914 81.073 63.9347L64.6923 81.7863V61.6222ZM88.1538 124.443C73.3437 119.373 64.6923 110.211 64.6923 99.531V94.8438H88.1538V124.443ZM88.1538 90.1563H76.9559L88.1538 77.5712V90.1563ZM88.1538 70.5139L70.6762 90.1563H64.6923V88.7244L88.1538 63.156V70.5139ZM92.8462 94.8438H99.4756L92.8462 102.57V94.8438ZM92.8462 109.773L105.656 94.8438H113.131L92.8462 117.038V109.773ZM116.308 99.531C116.308 110.211 107.656 119.373 92.8462 124.443V123.98L116.308 98.3191V99.531ZM116.308 90.1563H92.8462V61.5804C100.031 65.2103 109.123 65.2463 116.308 61.6233V90.1563Z" fill="white"/>
</svg>
